<svg width="370" height="245" viewBox="0 0 370 245" fill="none" xmlns="http://www.w3.org/2000/svg">
<path d="M303.092 170.822L254.051 142.492C251.038 140.758 251.422 137.716 254.889 135.712L302.239 108.363C305.721 106.358 310.979 106.131 313.978 107.879L363.019 136.209C366.031 137.943 365.648 140.985 362.18 142.989L314.83 170.338C311.349 172.343 306.091 172.57 303.092 170.822Z" fill="url(#paint0_linear_238_189)"/>
<path d="M308.221 159.29C305.819 159.29 303.517 158.778 301.698 157.727L252.657 129.397C250.482 128.146 249.232 126.184 249.232 124.038C249.232 121.636 250.781 119.361 253.495 117.784L300.845 90.4347C305.222 87.9045 311.475 87.6913 315.369 89.9514L364.41 118.281C366.584 119.532 367.834 121.494 367.834 123.64C367.834 126.042 366.286 128.331 363.571 129.894L316.221 157.243C313.876 158.608 310.977 159.29 308.206 159.29H308.221ZM304.483 152.908C306.643 154.159 310.835 153.931 313.436 152.425L360.786 125.076C361.98 124.393 362.264 123.768 362.264 123.654C362.25 123.626 362.093 123.398 361.624 123.128L312.583 94.7986C310.423 93.5477 306.245 93.7751 303.631 95.2819L256.28 122.631C255.087 123.313 254.803 123.939 254.803 124.052C254.817 124.081 254.973 124.322 255.442 124.578L304.483 152.908Z" fill="url(#paint1_linear_238_189)"/>
<path d="M308.412 99.7481C314.97 99.7481 320.286 94.4326 320.286 87.8741C320.286 81.3155 314.97 76 308.412 76C301.853 76 296.538 81.3155 296.538 87.8741C296.538 94.4326 301.853 99.7481 308.412 99.7481ZM316.724 102.717H315.175C313.115 103.663 310.824 104.201 308.412 104.201C306 104.201 303.718 103.663 301.649 102.717H300.1C293.217 102.717 287.632 108.301 287.632 115.184V119.043C287.632 121.502 289.627 123.496 292.085 123.496H324.739C327.197 123.496 329.191 121.502 329.191 119.043V115.184C329.191 108.301 323.607 102.717 316.724 102.717Z" fill="#9DB8FF"/>
<path d="M58.8602 170.822L9.81901 142.492C6.80634 140.758 7.19003 137.716 10.6574 135.712L58.0075 108.363C61.4892 106.358 66.7471 106.131 69.7456 107.879L118.787 136.209C121.799 137.943 121.416 140.985 117.948 142.989L70.5982 170.338C67.1166 172.343 61.8586 172.57 58.8602 170.822Z" fill="url(#paint2_linear_238_189)"/>
<path d="M63.9886 159.29C61.587 159.29 59.2849 158.778 57.4659 157.727L8.42479 129.397C6.25055 128.146 5 126.184 5 124.038C5 121.636 6.54897 119.361 9.26321 117.784L56.6133 90.4347C60.9902 87.9045 67.2429 87.6913 71.1367 89.9514L120.178 118.281C122.352 119.532 123.603 121.494 123.603 123.64C123.603 126.042 122.054 128.331 119.339 129.894L71.9893 157.243C69.6445 158.608 66.7455 159.29 63.9744 159.29H63.9886ZM60.2512 152.908C62.4113 154.159 66.6034 153.931 69.204 152.425L116.554 125.076C117.748 124.393 118.032 123.768 118.032 123.654C118.018 123.626 117.861 123.398 117.392 123.128L68.3513 94.7986C66.1913 93.5477 62.0134 93.7751 59.3986 95.2819L12.0485 122.631C10.8548 123.313 10.5706 123.939 10.5706 124.052C10.5848 124.081 10.7411 124.322 11.2101 124.578L60.2512 152.908Z" fill="url(#paint3_linear_238_189)"/>
<path d="M214.054 113.163C214.531 112.696 214.537 111.93 214.069 111.452L206.433 103.656C205.965 103.178 205.199 103.168 204.722 103.635C204.246 104.102 204.239 104.868 204.708 105.346L211.495 112.276L204.592 119.036C204.116 119.503 204.109 120.269 204.578 120.747C205.046 121.226 205.812 121.235 206.289 120.769L214.054 113.163ZM147.852 112.702L213.196 113.507L213.216 111.087L147.873 110.282L147.852 112.702Z" fill="url(#paint4_linear_238_189)"/>
<path d="M147.014 130.92C146.538 130.454 146.531 129.688 147 129.209L154.636 121.413C155.104 120.934 155.871 120.925 156.347 121.391C156.824 121.858 156.83 122.624 156.361 123.103L149.574 130.033L156.476 136.792C156.952 137.259 156.958 138.025 156.49 138.504C156.021 138.982 155.255 138.992 154.779 138.525L147.014 130.92ZM213.216 130.449L147.873 131.264L147.853 128.844L213.196 128.029L213.216 130.449Z" fill="url(#paint5_linear_238_189)"/>
<g filter="url(#filter0_d_238_189)">
<rect x="5" y="144.925" width="110.551" height="23.0337" rx="11.5168" fill="white" shape-rendering="crispEdges"/>
<path opacity="0.8" d="M12.8081 161.441V150.971H14.7048V159.851H19.3162V161.441H12.8081ZM20.7366 161.441V153.589H22.5873V161.441H20.7366ZM21.6671 152.474C21.374 152.474 21.1218 152.377 20.9104 152.183C20.6991 151.985 20.5935 151.748 20.5935 151.472C20.5935 151.193 20.6991 150.956 20.9104 150.762C21.1218 150.564 21.374 150.465 21.6671 150.465C21.9636 150.465 22.2158 150.564 22.4237 150.762C22.635 150.956 22.7407 151.193 22.7407 151.472C22.7407 151.748 22.635 151.985 22.4237 152.183C22.2158 152.377 21.9636 152.474 21.6671 152.474ZM26.1971 156.84V161.441H24.3464V153.589H26.1153V154.923H26.2074C26.388 154.483 26.676 154.134 27.0714 153.875C27.4701 153.616 27.9626 153.487 28.5488 153.487C29.0908 153.487 29.5628 153.602 29.965 153.834C30.3706 154.066 30.6841 154.402 30.9057 154.841C31.1306 155.281 31.2414 155.814 31.238 156.441V161.441H29.3873V156.728C29.3873 156.203 29.2509 155.792 28.9783 155.496C28.709 155.199 28.3358 155.051 27.8587 155.051C27.5349 155.051 27.2469 155.122 26.9947 155.266C26.7459 155.405 26.5499 155.608 26.4067 155.874C26.267 156.14 26.1971 156.462 26.1971 156.84ZM36.3905 164.55C35.7258 164.55 35.155 164.459 34.6778 164.279C34.2006 164.102 33.8172 163.863 33.5275 163.563C33.2378 163.263 33.0367 162.931 32.9242 162.566L34.5909 162.162C34.6659 162.316 34.7749 162.467 34.9181 162.617C35.0612 162.771 35.2538 162.897 35.4958 162.996C35.7412 163.098 36.0496 163.149 36.4211 163.149C36.946 163.149 37.3806 163.021 37.7248 162.766C38.069 162.513 38.2411 162.097 38.2411 161.518V160.03H38.1491C38.0537 160.221 37.914 160.417 37.7299 160.618C37.5493 160.819 37.309 160.988 37.0091 161.124C36.7125 161.261 36.3393 161.329 35.8894 161.329C35.2862 161.329 34.7391 161.187 34.2484 160.905C33.761 160.618 33.3724 160.192 33.0827 159.627C32.7964 159.057 32.6533 158.345 32.6533 157.49C32.6533 156.627 32.7964 155.9 33.0827 155.307C33.3724 154.71 33.7627 154.258 34.2535 153.952C34.7443 153.642 35.2913 153.487 35.8946 153.487C36.3547 153.487 36.733 153.565 37.0295 153.722C37.3294 153.875 37.568 154.061 37.7452 154.279C37.9225 154.494 38.0571 154.696 38.1491 154.887H38.2514V153.589H40.0765V161.569C40.0765 162.241 39.9163 162.796 39.5959 163.236C39.2756 163.676 38.8376 164.004 38.282 164.223C37.7265 164.441 37.096 164.55 36.3905 164.55ZM36.4058 159.877C36.7977 159.877 37.1318 159.782 37.4078 159.591C37.6839 159.4 37.8935 159.125 38.0367 158.768C38.1798 158.41 38.2514 157.98 38.2514 157.479C38.2514 156.985 38.1798 156.552 38.0367 156.181C37.8969 155.809 37.689 155.521 37.4129 155.317C37.1403 155.109 36.8046 155.005 36.4058 155.005C35.9934 155.005 35.6492 155.112 35.3731 155.327C35.097 155.542 34.8891 155.837 34.7494 156.211C34.6096 156.583 34.5398 157.006 34.5398 157.479C34.5398 157.96 34.6096 158.381 34.7494 158.742C34.8925 159.1 35.1021 159.379 35.3782 159.58C35.6577 159.778 36.0002 159.877 36.4058 159.877ZM48.8435 153.589L46.047 161.441H44.002L41.2055 153.589H43.1789L44.9836 159.422H45.0654L46.8752 153.589H48.8435ZM52.0149 161.6C51.5173 161.6 51.0691 161.511 50.6703 161.334C50.275 161.153 49.9614 160.888 49.7296 160.537C49.5013 160.185 49.3871 159.753 49.3871 159.238C49.3871 158.795 49.4689 158.428 49.6325 158.139C49.7961 157.849 50.0194 157.617 50.3022 157.444C50.5851 157.27 50.9038 157.138 51.2583 157.05C51.6161 156.958 51.9859 156.891 52.3677 156.85C52.8278 156.803 53.201 156.76 53.4873 156.723C53.7736 156.682 53.9815 156.62 54.111 156.539C54.2439 156.453 54.3104 156.322 54.3104 156.145V156.114C54.3104 155.729 54.1962 155.431 53.9678 155.22C53.7395 155.008 53.4106 154.903 52.9811 154.903C52.5278 154.903 52.1683 155.001 51.9024 155.199C51.64 155.397 51.4628 155.63 51.3707 155.9L49.6427 155.654C49.7791 155.177 50.004 154.778 50.3176 154.458C50.6311 154.134 51.0146 153.892 51.4679 153.732C51.9212 153.568 52.4222 153.487 52.9709 153.487C53.3492 153.487 53.7258 153.531 54.1008 153.619C54.4757 153.708 54.8182 153.855 55.1284 154.059C55.4385 154.26 55.6873 154.535 55.8748 154.882C56.0656 155.23 56.1611 155.664 56.1611 156.186V161.441H54.3819V160.363H54.3206C54.2081 160.581 54.0496 160.785 53.8451 160.976C53.644 161.164 53.3901 161.315 53.0834 161.431C52.7801 161.544 52.4239 161.6 52.0149 161.6ZM52.4955 160.24C52.867 160.24 53.189 160.167 53.4617 160.02C53.7344 159.87 53.944 159.673 54.0905 159.427C54.2405 159.182 54.3155 158.914 54.3155 158.624V157.699C54.2575 157.747 54.1587 157.791 54.019 157.832C53.8826 157.873 53.7293 157.909 53.5588 157.939C53.3884 157.97 53.2197 157.997 53.0527 158.021C52.8857 158.045 52.7409 158.066 52.6182 158.083C52.3421 158.12 52.095 158.181 51.8769 158.267C51.6587 158.352 51.4866 158.471 51.3605 158.624C51.2344 158.774 51.1713 158.969 51.1713 159.207C51.1713 159.548 51.2957 159.805 51.5446 159.979C51.7934 160.153 52.1103 160.24 52.4955 160.24ZM59.7287 156.84V161.441H57.878V153.589H59.6469V154.923H59.7389C59.9196 154.483 60.2076 154.134 60.6029 153.875C61.0017 153.616 61.4942 153.487 62.0804 153.487C62.6223 153.487 63.0944 153.602 63.4965 153.834C63.9021 154.066 64.2157 154.402 64.4372 154.841C64.6622 155.281 64.7729 155.814 64.7695 156.441V161.441H62.9188V156.728C62.9188 156.203 62.7825 155.792 62.5098 155.496C62.2406 155.199 61.8674 155.051 61.3902 155.051C61.0664 155.051 60.7784 155.122 60.5262 155.266C60.2774 155.405 60.0815 155.608 59.9383 155.874C59.7986 156.14 59.7287 156.462 59.7287 156.84ZM69.9834 161.595C69.1961 161.595 68.5161 161.431 67.9435 161.104C67.3743 160.773 66.9364 160.306 66.6296 159.703C66.3229 159.097 66.1695 158.382 66.1695 157.561C66.1695 156.753 66.3229 156.044 66.6296 155.434C66.9398 154.821 67.3726 154.344 67.9282 154.003C68.4837 153.659 69.1364 153.487 69.8862 153.487C70.3702 153.487 70.8269 153.565 71.2564 153.722C71.6892 153.875 72.0709 154.114 72.4015 154.437C72.7355 154.761 72.998 155.174 73.1888 155.675C73.3797 156.172 73.4751 156.765 73.4751 157.454V158.021H67.0386V156.774H71.7011C71.6977 156.419 71.621 156.104 71.4711 155.828C71.3211 155.549 71.1115 155.329 70.8423 155.168C70.5764 155.008 70.2663 154.928 69.9118 154.928C69.5335 154.928 69.2012 155.02 68.9149 155.204C68.6286 155.385 68.4053 155.623 68.2451 155.92C68.0884 156.213 68.0083 156.535 68.0049 156.886V157.975C68.0049 158.432 68.0884 158.824 68.2554 159.151C68.4224 159.475 68.6558 159.724 68.9558 159.897C69.2557 160.068 69.6068 160.153 70.0089 160.153C70.2782 160.153 70.5219 160.116 70.74 160.041C70.9581 159.962 71.1473 159.848 71.3075 159.698C71.4677 159.548 71.5887 159.362 71.6705 159.141L73.3985 159.335C73.2894 159.792 73.0815 160.191 72.7747 160.531C72.4714 160.869 72.0829 161.131 71.6091 161.319C71.1354 161.503 70.5934 161.595 69.9834 161.595ZM76.2414 153.589L77.8263 156.487L79.4367 153.589H81.3947L79.0277 157.515L81.4356 161.441H79.4878L77.8263 158.614L76.1801 161.441H74.2169L76.6095 157.515L74.2782 153.589H76.2414ZM86.1911 161.441V150.971H88.0418V154.887H88.1185C88.2139 154.696 88.3485 154.494 88.5223 154.279C88.6962 154.061 88.9313 153.875 89.2278 153.722C89.5244 153.565 89.9027 153.487 90.3628 153.487C90.9695 153.487 91.5165 153.642 92.0039 153.952C92.4947 154.258 92.8832 154.713 93.1695 155.317C93.4592 155.917 93.6041 156.653 93.6041 157.525C93.6041 158.388 93.4626 159.12 93.1797 159.724C92.8969 160.327 92.5117 160.787 92.0243 161.104C91.537 161.421 90.9848 161.579 90.3679 161.579C89.918 161.579 89.5448 161.504 89.2483 161.354C88.9518 161.205 88.7132 161.024 88.5326 160.813C88.3553 160.598 88.2173 160.395 88.1185 160.204H88.0111V161.441H86.1911ZM88.006 157.515C88.006 158.023 88.0776 158.468 88.2207 158.849C88.3673 159.231 88.5769 159.529 88.8495 159.744C89.1256 159.955 89.4596 160.061 89.8516 160.061C90.2606 160.061 90.6031 159.952 90.8792 159.734C91.1552 159.512 91.3631 159.211 91.5029 158.829C91.646 158.444 91.7176 158.006 91.7176 157.515C91.7176 157.028 91.6477 156.595 91.508 156.217C91.3682 155.838 91.1603 155.542 90.8843 155.327C90.6082 155.112 90.264 155.005 89.8516 155.005C89.4562 155.005 89.1205 155.109 88.8444 155.317C88.5683 155.525 88.3587 155.816 88.2156 156.191C88.0759 156.566 88.006 157.007 88.006 157.515ZM98.4588 161.595C97.6919 161.595 97.0273 161.426 96.4649 161.089C95.9026 160.751 95.4663 160.279 95.1561 159.673C94.8494 159.066 94.696 158.357 94.696 157.546C94.696 156.735 94.8494 156.024 95.1561 155.414C95.4663 154.804 95.9026 154.33 96.4649 153.993C97.0273 153.655 97.6919 153.487 98.4588 153.487C99.2256 153.487 99.8902 153.655 100.453 153.993C101.015 154.33 101.45 154.804 101.756 155.414C102.066 156.024 102.221 156.735 102.221 157.546C102.221 158.357 102.066 159.066 101.756 159.673C101.45 160.279 101.015 160.751 100.453 161.089C99.8902 161.426 99.2256 161.595 98.4588 161.595ZM98.469 160.112C98.8848 160.112 99.2324 159.998 99.5119 159.77C99.7914 159.538 99.9993 159.228 100.136 158.839C100.275 158.451 100.345 158.018 100.345 157.541C100.345 157.06 100.275 156.626 100.136 156.237C99.9993 155.845 99.7914 155.533 99.5119 155.301C99.2324 155.07 98.8848 154.954 98.469 154.954C98.043 154.954 97.6885 155.07 97.4056 155.301C97.1261 155.533 96.9165 155.845 96.7768 156.237C96.6405 156.626 96.5723 157.06 96.5723 157.541C96.5723 158.018 96.6405 158.451 96.7768 158.839C96.9165 159.228 97.1261 159.538 97.4056 159.77C97.6885 159.998 98.043 160.112 98.469 160.112ZM107.57 153.589V155.02H103.055V153.589H107.57ZM104.17 151.707H106.02V159.079C106.02 159.328 106.058 159.519 106.133 159.652C106.211 159.782 106.314 159.87 106.44 159.918C106.566 159.966 106.706 159.989 106.859 159.989C106.975 159.989 107.08 159.981 107.176 159.964C107.275 159.947 107.35 159.932 107.401 159.918L107.713 161.365C107.614 161.399 107.472 161.436 107.288 161.477C107.108 161.518 106.886 161.542 106.624 161.549C106.16 161.562 105.743 161.493 105.371 161.339C105 161.182 104.705 160.94 104.487 160.613C104.272 160.286 104.166 159.877 104.17 159.386V151.707Z" fill="black"/>
</g>
<path d="M77.2904 114.424C80.2767 114.424 82.6972 116.845 82.6972 119.831V121.892H82.6814C82.5798 124.221 81.9412 127.142 79.3258 129.528C76.4689 132.135 71.5372 133.839 63.2729 133.839C55.0085 133.839 50.077 132.135 47.2201 129.528C44.6046 127.142 43.9661 124.221 43.8646 121.892H43.8486V119.831C43.8486 116.845 46.2693 114.424 49.2555 114.424H77.2904Z" fill="#9DB8FF"/>
<path d="M52.8141 89.0137C50.3384 89.0137 48.3315 91.0206 48.3315 93.4963V105.45C48.3315 107.925 50.3384 109.932 52.8141 109.932H73.7325C76.2081 109.932 78.2151 107.925 78.2151 105.45V93.4963C78.2151 91.0206 76.2081 89.0137 73.7325 89.0137H64.7675C64.7675 89.0137 64.7675 88.4417 64.7675 87.5196C64.7675 86.5974 64.0984 86.0254 63.2733 86.0254C62.4481 86.0254 61.7791 86.7141 61.7791 87.5196V89.0137H52.8141ZM54.3083 99.473C54.3083 97.8225 55.6462 96.4846 57.2966 96.4846C58.947 96.4846 60.285 97.8225 60.285 99.473C60.285 101.123 58.947 102.461 57.2966 102.461C55.6462 102.461 54.3083 101.123 54.3083 99.473ZM66.2617 99.473C66.2617 97.8225 67.5996 96.4846 69.25 96.4846C70.9005 96.4846 72.2384 97.8225 72.2384 99.473C72.2384 101.123 70.9005 102.461 69.25 102.461C67.5996 102.461 66.2617 101.123 66.2617 99.473Z" fill="#9DB8FF"/>
<defs>
<filter id="filter0_d_238_189" x="0.483159" y="144.925" width="119.584" height="32.0674" filterUnits="userSpaceOnUse" color-interpolation-filters="sRGB">
<feFlood flood-opacity="0" result="BackgroundImageFix"/>
<feColorMatrix in="SourceAlpha" type="matrix" values="0 0 0 0 0 0 0 0 0 0 0 0 0 0 0 0 0 0 127 0" result="hardAlpha"/>
<feOffset dy="4.51684"/>
<feGaussianBlur stdDeviation="2.25842"/>
<feComposite in2="hardAlpha" operator="out"/>
<feColorMatrix type="matrix" values="0 0 0 0 0 0 0 0 0 0 0 0 0 0 0 0 0 0 0.08 0"/>
<feBlend mode="normal" in2="BackgroundImageFix" result="effect1_dropShadow_238_189"/>
<feBlend mode="normal" in="SourceGraphic" in2="effect1_dropShadow_238_189" result="shape"/>
</filter>
<linearGradient id="paint0_linear_238_189" x1="308.535" y1="235.957" x2="281.432" y2="111.6" gradientUnits="userSpaceOnUse">
<stop stop-color="#0D9AFF" stop-opacity="0.01"/>
<stop offset="1" stop-color="#0D9AFF" stop-opacity="0.12"/>
</linearGradient>
<linearGradient id="paint1_linear_238_189" x1="261.62" y1="146.524" x2="376.019" y2="115.345" gradientUnits="userSpaceOnUse">
<stop offset="0.158406" stop-color="#A5BDFF" stop-opacity="0.46"/>
<stop offset="1" stop-color="#A5BDFF" stop-opacity="0"/>
</linearGradient>
<linearGradient id="paint2_linear_238_189" x1="64.3029" y1="235.957" x2="37.1997" y2="111.6" gradientUnits="userSpaceOnUse">
<stop stop-color="#0D9AFF" stop-opacity="0.01"/>
<stop offset="1" stop-color="#0D9AFF" stop-opacity="0.12"/>
</linearGradient>
<linearGradient id="paint3_linear_238_189" x1="17.3878" y1="146.524" x2="131.787" y2="115.345" gradientUnits="userSpaceOnUse">
<stop offset="0.158406" stop-color="#A5BDFF" stop-opacity="0.46"/>
<stop offset="1" stop-color="#A5BDFF" stop-opacity="0"/>
</linearGradient>
<linearGradient id="paint4_linear_238_189" x1="213.206" y1="112.287" x2="143.24" y2="111.731" gradientUnits="userSpaceOnUse">
<stop stop-color="#0146FE"/>
<stop offset="1" stop-color="#0146FE" stop-opacity="0"/>
</linearGradient>
<linearGradient id="paint5_linear_238_189" x1="147.863" y1="130.044" x2="217.828" y2="129.496" gradientUnits="userSpaceOnUse">
<stop stop-color="#0146FE"/>
<stop offset="1" stop-color="#0146FE" stop-opacity="0"/>
</linearGradient>
</defs>
</svg>
