<svg width="368" height="245" viewBox="0 0 368 245" fill="none" xmlns="http://www.w3.org/2000/svg">
<circle opacity="0.1" cx="92.9167" cy="125.31" r="64.6199" fill="url(#paint0_radial_238_153)"/>
<circle opacity="0.2" cx="92.9154" cy="125.31" r="54.1507" fill="url(#paint1_radial_238_153)"/>
<circle opacity="0.3" cx="92.9186" cy="125.31" r="44.0426" fill="url(#paint2_radial_238_153)"/>
<circle cx="92.7343" cy="125.337" r="34.476" fill="#0146FE"/>
<path d="M107.851 120.977C108.92 120.977 109.787 121.831 109.787 122.889C109.787 131.491 103.192 138.594 94.7352 139.548V143.397C94.7352 144.452 93.8678 145.309 92.799 145.309C91.7283 145.309 90.8629 144.452 90.8629 143.397V139.548C82.4037 138.594 75.8091 131.491 75.8091 122.889C75.8091 121.831 76.6765 120.977 77.7453 120.977C78.814 120.977 79.6814 121.831 79.6814 122.889C79.6814 130.03 85.5655 135.84 92.799 135.84C100.031 135.84 105.915 130.03 105.915 122.889C105.915 121.831 106.782 120.977 107.851 120.977ZM93.1474 105.334C97.1339 105.334 100.493 107.981 101.521 111.592C101.663 112.088 101.289 112.579 100.77 112.579H98.5067C97.8232 112.579 97.2675 113.126 97.2675 113.801C97.2675 114.479 97.8232 115.026 98.5067 115.026H100.594C101.285 115.026 101.847 115.579 101.847 116.261C101.847 116.944 101.285 117.497 100.594 117.497H98.5067C97.8232 117.497 97.2675 118.045 97.2675 118.722C97.2675 119.397 97.8232 119.946 98.5067 119.946H100.594C101.285 119.946 101.847 120.498 101.847 121.183C101.847 121.864 101.285 122.416 100.594 122.416H98.5067C97.8232 122.416 97.2675 122.965 97.2675 123.642C97.2675 124.317 97.8232 124.863 98.5067 124.863H100.66C101.19 124.863 101.57 125.376 101.403 125.873C100.255 129.288 96.9945 131.75 93.1474 131.75H92.4484C87.6447 131.75 83.7511 127.905 83.7511 123.164V113.923C83.7511 109.179 87.6447 105.334 92.4484 105.334H93.1474Z" fill="white"/>
<rect opacity="0.1" x="130.505" y="117.018" width="2.00302" height="16.6806" rx="1.00151" fill="#3E7DFA"/>
<rect opacity="0.2" x="136.798" y="110.172" width="2.00302" height="30.3736" rx="1.00151" fill="#3E7DFA"/>
<rect opacity="0.3" x="143.096" y="102.329" width="2.00302" height="46.0584" rx="1.00151" fill="#3E7DFA"/>
<rect opacity="0.4" x="149.389" y="96.0288" width="2.00302" height="58.6599" rx="1.00151" fill="#3E7DFA"/>
<rect opacity="0.5" x="155.687" y="102.296" width="2.00302" height="46.1236" rx="1.00151" fill="#3E7DFA"/>
<rect opacity="0.6" x="161.98" y="110.186" width="2.00302" height="30.3445" rx="1.00151" fill="#3E7DFA"/>
<rect opacity="0.7" x="168.277" y="93.167" width="2.00302" height="64.3828" rx="1.00151" fill="#3E7DFA"/>
<rect opacity="0.8" x="174.57" y="95.8848" width="2.00302" height="58.946" rx="1.00151" fill="#3E7DFA"/>
<rect opacity="0.9" x="180.868" y="110.186" width="2.00302" height="30.3445" rx="1.00151" fill="#3E7DFA"/>
<rect x="187.161" y="102.296" width="2.00302" height="46.1236" rx="1.00151" fill="#3E7DFA"/>
<rect x="193.458" y="102.296" width="2.00302" height="46.1236" rx="1.00151" fill="#3E7DFA"/>
<rect opacity="0.9" x="199.751" y="88.1592" width="2.00302" height="74.3979" rx="1.00151" fill="#3E7DFA"/>
<rect opacity="0.8" x="206.049" y="102.296" width="2.00302" height="46.1236" rx="1.00151" fill="#3E7DFA"/>
<rect opacity="0.7" x="212.341" y="110.186" width="2.00302" height="30.3445" rx="1.00151" fill="#3E7DFA"/>
<rect opacity="0.6" x="218.639" y="117.014" width="2.00302" height="16.6895" rx="1.00151" fill="#3E7DFA"/>
<rect opacity="0.5" x="224.933" y="108.476" width="2.00302" height="33.7652" rx="1.00151" fill="#3E7DFA"/>
<rect opacity="0.4" x="231.23" y="103.325" width="2.00302" height="44.0664" rx="1.00151" fill="#3E7DFA"/>
<rect opacity="0.3" x="237.522" y="106.615" width="2.00302" height="37.4851" rx="1.00151" fill="#3E7DFA"/>
<rect opacity="0.2" x="243.821" y="110.186" width="2.00302" height="30.3445" rx="1.00151" fill="#3E7DFA"/>
<rect opacity="0.1" x="250.113" y="117.014" width="2.00302" height="16.6895" rx="1.00151" fill="#3E7DFA"/>
<g filter="url(#filter0_d_238_153)">
<path d="M336.381 115.122C341.852 135.542 329.734 156.532 309.313 162.004C288.892 167.476 267.902 155.357 262.431 134.937C256.959 114.516 269.077 93.5258 289.498 88.0541C309.919 82.5823 330.909 94.7009 336.381 115.122Z" fill="white"/>
<path d="M330.332 164.084C330.349 165.039 329.436 165.738 328.519 165.472L310.262 160.191C309.143 159.868 308.869 158.409 309.794 157.701L327.716 143.98C328.641 143.272 329.978 143.918 329.998 145.082L330.332 164.084Z" fill="white"/>
</g>
<path d="M304.536 137.059L301.456 128.313H289.414L286.333 137.059H280.883L292.602 105.435H298.332L310.03 137.059H304.536ZM300.12 123.875L297.126 115.258C297.011 114.885 296.846 114.36 296.63 113.685C296.415 112.996 296.2 112.3 295.984 111.596C295.769 110.878 295.589 110.275 295.446 109.786C295.302 110.375 295.122 111.036 294.907 111.768C294.706 112.486 294.505 113.161 294.304 113.793C294.117 114.425 293.973 114.913 293.873 115.258L290.857 123.875H300.12Z" fill="#001624"/>
<path d="M314.157 143.886C314.707 143.271 315.18 142.589 315.576 141.841C315.993 141.116 316.202 140.335 316.202 139.5V139.236C315.565 139.126 314.96 138.917 314.388 138.609C313.839 138.301 313.355 137.917 312.937 137.455C312.541 136.993 312.222 136.465 311.981 135.872C311.761 135.278 311.651 134.64 311.651 133.959C311.651 133.211 311.794 132.519 312.08 131.881C312.365 131.221 312.75 130.65 313.234 130.166C313.718 129.682 314.278 129.308 314.916 129.044C315.576 128.759 316.268 128.616 316.994 128.616C317.939 128.616 318.775 128.825 319.5 129.242C320.226 129.66 320.831 130.21 321.314 130.891C321.798 131.573 322.161 132.343 322.403 133.2C322.667 134.036 322.799 134.893 322.799 135.773C322.799 136.762 322.667 137.741 322.403 138.708C322.139 139.676 321.754 140.588 321.248 141.446C320.765 142.303 320.16 143.073 319.434 143.754C318.731 144.436 317.917 144.997 316.994 145.436L314.157 143.886Z" fill="#0146FE"/>
<defs>
<filter id="filter0_d_238_153" x="246.392" y="86.7402" width="106.027" height="110.777" filterUnits="userSpaceOnUse" color-interpolation-filters="sRGB">
<feFlood flood-opacity="0" result="BackgroundImageFix"/>
<feColorMatrix in="SourceAlpha" type="matrix" values="0 0 0 0 0 0 0 0 0 0 0 0 0 0 0 0 0 0 127 0" result="hardAlpha"/>
<feOffset dy="17.2634"/>
<feGaussianBlur stdDeviation="7.36235"/>
<feComposite in2="hardAlpha" operator="out"/>
<feColorMatrix type="matrix" values="0 0 0 0 0.489149 0 0 0 0 0.59323 0 0 0 0 0.670833 0 0 0 0.16 0"/>
<feBlend mode="normal" in2="BackgroundImageFix" result="effect1_dropShadow_238_153"/>
<feBlend mode="normal" in="SourceGraphic" in2="effect1_dropShadow_238_153" result="shape"/>
</filter>
<radialGradient id="paint0_radial_238_153" cx="0" cy="0" r="1" gradientUnits="userSpaceOnUse" gradientTransform="translate(93.1672 125.31) rotate(161.143) scale(68.5494 68.2848)">
<stop offset="0.375" stop-color="#3E7DFA" stop-opacity="0"/>
<stop offset="1" stop-color="#3E7DFA" stop-opacity="0.4"/>
</radialGradient>
<radialGradient id="paint1_radial_238_153" cx="0" cy="0" r="1" gradientUnits="userSpaceOnUse" gradientTransform="translate(93.1253 125.31) rotate(161.143) scale(57.4436 57.2219)">
<stop offset="0.375" stop-color="#3E7DFA" stop-opacity="0"/>
<stop offset="1" stop-color="#3E7DFA" stop-opacity="0.4"/>
</radialGradient>
<radialGradient id="paint2_radial_238_153" cx="0" cy="0" r="1" gradientUnits="userSpaceOnUse" gradientTransform="translate(93.0893 125.31) rotate(161.143) scale(46.7208 46.5405)">
<stop offset="0.375" stop-color="#3E7DFA" stop-opacity="0"/>
<stop offset="1" stop-color="#3E7DFA" stop-opacity="0.4"/>
</radialGradient>
</defs>
</svg>
